<svg width="40" height="40" viewBox="0 0 40 40" fill="none" xmlns="http://www.w3.org/2000/svg">
<path fill-rule="evenodd" clip-rule="evenodd" d="M11.4142 8.58575C10.6332 7.80475 9.36684 7.80475 8.5858 8.58575C7.80476 9.36682 7.80476 10.6332 8.5858 11.4142L17.0711 19.8995L8.5858 28.3848C7.80473 29.1658 7.80473 30.4321 8.5858 31.2132C9.36684 31.9943 10.6332 31.9943 11.4142 31.2132L19.8995 22.7279L28.3848 31.2132C29.1658 31.9943 30.4322 31.9943 31.2132 31.2132C31.9943 30.4321 31.9943 29.1658 31.2132 28.3848L22.7279 19.8995L31.2132 11.4142C31.9942 10.6332 31.9942 9.36682 31.2132 8.58582C30.4322 7.80475 29.1658 7.80475 28.3848 8.58582L19.8995 17.071L11.4142 8.58575Z" fill="black"/>
</svg>
