<svg width="40" height="40" viewBox="0 0 40 40" fill="none" xmlns="http://www.w3.org/2000/svg">
<path fill-rule="evenodd" clip-rule="evenodd" d="M4 10C4 8.89543 4.89543 8 6 8H34C35.1046 8 36 8.89543 36 10C36 11.1046 35.1046 12 34 12H6C4.89543 12 4 11.1046 4 10ZM4 20C4 18.8954 4.89543 18 6 18H34C35.1046 18 36 18.8954 36 20C36 21.1046 35.1046 22 34 22H6C4.89543 22 4 21.1046 4 20ZM6 28C4.89543 28 4 28.8954 4 30C4 31.1046 4.89543 32 6 32H34C35.1046 32 36 31.1046 36 30C36 28.8954 35.1046 28 34 28H6Z" fill="black"/>
</svg>
